<?xml version="1.0" encoding="UTF-8" standalone="no"?>
<!-- Created with Inkscape (http://www.inkscape.org/) -->

<svg
   width="510"
   height="76"
   viewBox="0 0 134.93749 20.108333"
   version="1.1"
   id="svg5"
   sodipodi:docname="slogan-pisces-system.svg"
   inkscape:version="1.2 (dc2aedaf03, 2022-05-15)"
   inkscape:export-filename="slogan-pisces-system.png"
   inkscape:export-xdpi="96"
   inkscape:export-ydpi="96"
   xmlns:inkscape="http://www.inkscape.org/namespaces/inkscape"
   xmlns:sodipodi="http://sodipodi.sourceforge.net/DTD/sodipodi-0.dtd"
   xmlns:xlink="http://www.w3.org/1999/xlink"
   xmlns="http://www.w3.org/2000/svg"
   xmlns:svg="http://www.w3.org/2000/svg"
   xmlns:rdf="http://www.w3.org/1999/02/22-rdf-syntax-ns#"
   xmlns:cc="http://creativecommons.org/ns#"
   xmlns:dc="http://purl.org/dc/elements/1.1/">
  <title
     id="title1582">Pisces System Slogan</title>
  <sodipodi:namedview
     id="namedview7"
     pagecolor="#ffffff"
     bordercolor="#999999"
     borderopacity="1"
     inkscape:showpageshadow="0"
     inkscape:pageopacity="0"
     inkscape:pagecheckerboard="0"
     inkscape:deskcolor="#d1d1d1"
     inkscape:document-units="px"
     showgrid="false"
     inkscape:zoom="1.4142136"
     inkscape:cx="161.5739"
     inkscape:cy="151.6744"
     inkscape:current-layer="layer1" />
  <defs
     id="defs2">
    <linearGradient
       inkscape:collect="always"
       id="linearGradient1052">
      <stop
         style="stop-color:#5894fa;stop-opacity:1;"
         offset="0"
         id="stop1048" />
      <stop
         style="stop-color:#a860fa;stop-opacity:1;"
         offset="1"
         id="stop1050" />
    </linearGradient>
    <linearGradient
       inkscape:collect="always"
       xlink:href="#linearGradient1052"
       id="linearGradient1054"
       x1="1.4054639"
       y1="14.280437"
       x2="109.25342"
       y2="14.280437"
       gradientUnits="userSpaceOnUse"
       gradientTransform="translate(1.7926859,-0.17383111)" />
  </defs>
  <g
     inkscape:label="Image"
     inkscape:groupmode="layer"
     id="layer1"
     transform="translate(-1.7568333,-3.2060301)">
    <g
       aria-label="Pisces System"
       id="text186"
       style="font-size:20.6375px;line-height:1.25;letter-spacing:0px;word-spacing:0px;fill:url(#linearGradient1054);stroke-width:0.264583"
       inkscape:label="pisces system text">
      <path
         d="m 3.5055984,3.6328014 h 5.0355502 q 1.1763376,0 2.0637504,0.3302 0.90805,0.3095625 1.506537,0.8874125 0.598488,0.5572125 0.887413,1.3414376 0.309562,0.784225 0.309562,1.692275 v 0.4333876 q 0,0.90805 -0.3302,1.6922749 -0.309562,0.784225 -0.928687,1.382713 -0.598488,0.57785 -1.4859,0.90805 -0.8874128,0.3302 -2.0224754,0.3302 H 4.9502235 v 5.881687 H 3.5055984 Z m 1.4446251,1.3001625 v 6.3976251 h 3.2400876 q 1.9192879,0 2.7860629,-0.8255 0.866775,-0.8254999 0.866775,-2.2288499 V 7.904764 q 0,-1.3208 -0.846138,-2.1463 -0.8255,-0.8255001 -2.5796874,-0.8255001 z"
         style="font-family:NanumSquare;-inkscape-font-specification:NanumSquare;baseline-shift:baseline"
         id="path1672" />
      <path
         d="m 15.846815,7.3888265 h 1.403351 V 18.512439 h -1.403351 z m -0.06191,-3.6941126 h 1.527175 v 1.56845 h -1.527175 z"
         style="font-family:NanumSquare;-inkscape-font-specification:NanumSquare;baseline-shift:baseline"
         id="path1674" />
      <path
         d="m 24.143074,17.418652 q 1.362075,0 2.06375,-0.536575 0.701675,-0.536575 0.701675,-1.258888 v -0.206375 q 0,-0.846137 -0.701675,-1.279525 -0.681037,-0.433387 -2.290762,-0.74295 -0.846138,-0.1651 -1.527175,-0.392112 -0.681038,-0.227013 -1.1557,-0.57785 -0.474663,-0.350838 -0.74295,-0.8255 -0.268288,-0.4953 -0.268288,-1.176338 v -0.288925 q 0,-0.5984874 0.24765,-1.1350624 0.24765,-0.536575 0.74295,-0.9286876 0.4953,-0.41275 1.23825,-0.6397625 0.763588,-0.24765 1.795463,-0.24765 1.279525,0 2.208212,0.3302 0.928688,0.3095625 1.609726,0.8255001 l -0.639763,1.0525125 q -0.701675,-0.4746625 -1.423988,-0.7223125 -0.722312,-0.24765 -1.795462,-0.24765 -1.258888,0 -1.919288,0.5159375 -0.6604,0.4953 -0.6604,1.2176129 v 0.227012 q 0,0.722313 0.722313,1.135063 0.74295,0.41275 2.06375,0.6604 2.06375,0.392112 2.9718,1.114425 0.928688,0.722312 0.928688,2.06375 v 0.309562 q 0,0.6604 -0.309563,1.217613 -0.309562,0.557212 -0.866775,0.969962 -0.536575,0.392113 -1.279525,0.598488 -0.74295,0.227012 -1.630363,0.227012 -1.362075,0 -2.435225,-0.371475 -1.052512,-0.350837 -1.836737,-0.928687 l 0.681037,-1.114425 q 0.763588,0.515937 1.630363,0.846137 0.887412,0.309563 1.878012,0.309563 z"
         style="font-family:NanumSquare;-inkscape-font-specification:NanumSquare;baseline-shift:baseline"
         id="path1676" />
      <path
         d="m 34.915829,7.1824515 q 1.176337,0 2.06375,0.288925 0.887412,0.2682875 1.589087,0.8048626 l -0.639762,1.0937875 q -0.784225,-0.536575 -1.506538,-0.7223125 -0.722312,-0.206375 -1.506537,-0.206375 -1.4859,0 -2.332038,0.9906 -0.846137,0.9699629 -0.846137,2.7241499 v 1.423988 q 0,1.836737 0.866775,2.827337 0.866775,0.9906 2.352675,0.9906 1.1557,0 1.89865,-0.309562 0.763587,-0.3302 1.362075,-0.784225 l 0.6604,1.114425 q -0.309563,0.227012 -0.681038,0.454025 -0.371475,0.227012 -0.846137,0.392112 -0.474663,0.185738 -1.07315,0.288925 -0.598488,0.123825 -1.341438,0.123825 -2.187575,0 -3.405187,-1.3208 -1.217613,-1.341437 -1.217613,-3.776662 v -1.382713 q 0,-1.217612 0.3302,-2.1463 0.350838,-0.9493249 0.949325,-1.5684499 0.598488,-0.6397626 1.444625,-0.9699626 0.846138,-0.3302 1.878013,-0.3302 z"
         style="font-family:NanumSquare;-inkscape-font-specification:NanumSquare;baseline-shift:baseline"
         id="path1678" />
      <path
         d="m 48.103182,12.218002 v -0.185738 q 0,-1.754187 -0.804862,-2.6828749 -0.804863,-0.9286875 -2.270125,-0.9286875 -1.485901,0 -2.311401,0.9906 -0.804862,0.9699624 -0.804862,2.6209624 v 0.185738 z m 1.1557,5.20065 q -0.6604,0.474662 -1.651,0.866775 -0.9906,0.392112 -2.39395,0.392112 -2.22885,0 -3.4671,-1.3208 -1.23825,-1.341437 -1.23825,-3.776662 v -1.382713 q 0,-2.3733124 1.196975,-3.6941124 1.217612,-1.3208001 3.322638,-1.3208001 2.187575,0 3.322637,1.3620751 1.1557,1.3414375 1.1557,3.6941124 v 1.1557 h -7.5946 v 0.185738 q 0,1.857375 0.887412,2.868612 0.887413,0.9906 2.435226,0.9906 1.114425,0 1.960562,-0.3302 0.846138,-0.3302 1.444625,-0.763587 z"
         style="font-family:NanumSquare;-inkscape-font-specification:NanumSquare;baseline-shift:baseline"
         id="path1680" />
      <path
         d="m 55.80093,17.418652 q 1.362075,0 2.06375,-0.536575 0.701675,-0.536575 0.701675,-1.258888 v -0.206375 q 0,-0.846137 -0.701675,-1.279525 -0.681037,-0.433387 -2.290762,-0.74295 -0.846138,-0.1651 -1.527175,-0.392112 -0.681038,-0.227013 -1.1557,-0.57785 -0.474663,-0.350838 -0.74295,-0.8255 -0.268288,-0.4953 -0.268288,-1.176338 v -0.288925 q 0,-0.5984874 0.24765,-1.1350624 0.24765,-0.536575 0.74295,-0.9286876 0.4953,-0.41275 1.23825,-0.6397625 0.763588,-0.24765 1.795463,-0.24765 1.279525,0 2.208212,0.3302 0.928688,0.3095625 1.609726,0.8255001 l -0.639763,1.0525125 q -0.701675,-0.4746625 -1.423988,-0.7223125 -0.722312,-0.24765 -1.795462,-0.24765 -1.258888,0 -1.919288,0.5159375 -0.6604,0.4953 -0.6604,1.2176129 v 0.227012 q 0,0.722313 0.722313,1.135063 0.74295,0.41275 2.06375,0.6604 2.06375,0.392112 2.9718,1.114425 0.928688,0.722312 0.928688,2.06375 v 0.309562 q 0,0.6604 -0.309563,1.217613 -0.309562,0.557212 -0.866775,0.969962 -0.536575,0.392113 -1.279525,0.598488 -0.74295,0.227012 -1.630363,0.227012 -1.362075,0 -2.435225,-0.371475 -1.052512,-0.350837 -1.836737,-0.928687 l 0.681037,-1.114425 q 0.763588,0.515937 1.630363,0.846137 0.887412,0.309563 1.878012,0.309563 z"
         style="font-family:NanumSquare;-inkscape-font-specification:NanumSquare;baseline-shift:baseline"
         id="path1682" />
      <path
         d="m 72.228321,17.398014 q 0.866775,0 1.547812,-0.206375 0.701675,-0.206375 1.176338,-0.557212 0.4953,-0.371475 0.74295,-0.8255 0.24765,-0.474663 0.24765,-0.969963 v -0.433387 q 0,-0.515938 -0.1651,-0.928688 -0.1651,-0.41275 -0.598488,-0.74295 -0.433387,-0.350837 -1.196975,-0.619125 -0.74295,-0.288925 -1.939925,-0.557212 -1.300162,-0.288925 -2.187575,-0.6604 -0.866775,-0.392113 -1.40335,-0.866775 Q 67.935721,9.5351266 67.708708,8.9572766 67.502333,8.3587891 67.502333,7.657114 V 7.1824515 q 0,-0.8461375 0.350838,-1.527175 0.371475,-0.7016751 1.011237,-1.1969751 0.6604,-0.4953 1.547813,-0.7635875 0.90805,-0.288925 1.960562,-0.288925 1.506538,0 2.579688,0.371475 1.07315,0.3508375 1.836738,0.8874125 L 76.108171,5.841014 q -0.722313,-0.5159376 -1.651,-0.8048626 -0.928688,-0.3095625 -2.084388,-0.3095625 -0.681037,0 -1.300162,0.1651 -0.619125,0.1651 -1.093788,0.4953 -0.454025,0.3095626 -0.74295,0.7635876 -0.268287,0.454025 -0.268287,1.031875 v 0.41275 q 0,0.4746625 0.1651,0.8667751 0.185737,0.3921125 0.57785,0.701675 0.41275,0.3095625 1.093787,0.57785 0.681038,0.2682874 1.692275,0.4953004 1.444625,0.3302 2.39395,0.722312 0.949325,0.371475 1.506538,0.866775 0.557213,0.4953 0.784225,1.114425 0.227013,0.619125 0.227013,1.423988 v 0.474662 q 0,0.804863 -0.350838,1.506538 -0.350837,0.701675 -1.011238,1.23825 -0.639762,0.536575 -1.609725,0.846137 -0.949325,0.309563 -2.1463,0.309563 -1.4859,0 -2.786062,-0.454025 -1.279525,-0.433388 -2.270125,-1.196975 l 0.74295,-1.217613 q 1.114425,0.804863 2.166937,1.176338 1.07315,0.350837 2.084388,0.350837 z"
         style="font-family:NanumSquare;-inkscape-font-specification:NanumSquare;baseline-shift:baseline"
         id="path1684" />
      <path
         d="m 80.29756,7.3888265 3.446463,9.5551625 3.38455,-9.5551625 h 1.444625 L 82.794698,23.114602 81.597723,22.681215 83.02171,18.698177 78.852935,7.3888265 Z"
         style="font-family:NanumSquare;-inkscape-font-specification:NanumSquare;baseline-shift:baseline"
         id="path1686" />
      <path
         d="m 94.104031,17.418652 q 1.362075,0 2.06375,-0.536575 0.701675,-0.536575 0.701675,-1.258888 v -0.206375 q 0,-0.846137 -0.701675,-1.279525 -0.681037,-0.433387 -2.290763,-0.74295 -0.846137,-0.1651 -1.527175,-0.392112 -0.681037,-0.227013 -1.1557,-0.57785 -0.474662,-0.350838 -0.74295,-0.8255 -0.268287,-0.4953 -0.268287,-1.176338 v -0.288925 q 0,-0.5984874 0.24765,-1.1350624 0.24765,-0.536575 0.74295,-0.9286876 0.4953,-0.41275 1.23825,-0.6397625 0.763587,-0.24765 1.795462,-0.24765 1.279526,0 2.208213,0.3302 0.928688,0.3095625 1.609725,0.8255001 l -0.639762,1.0525125 q -0.701675,-0.4746625 -1.423988,-0.7223125 -0.722313,-0.24765 -1.795463,-0.24765 -1.258887,0 -1.919287,0.5159375 -0.6604,0.4953 -0.6604,1.2176129 v 0.227012 q 0,0.722313 0.722312,1.135063 0.74295,0.41275 2.06375,0.6604 2.063751,0.392112 2.971801,1.114425 0.928687,0.722312 0.928687,2.06375 v 0.309562 q 0,0.6604 -0.309562,1.217613 -0.309563,0.557212 -0.866775,0.969962 -0.536575,0.392113 -1.279525,0.598488 -0.742951,0.227012 -1.630363,0.227012 -1.362075,0 -2.435225,-0.371475 -1.052513,-0.350837 -1.836738,-0.928687 l 0.681038,-1.114425 q 0.763587,0.515937 1.630362,0.846137 0.887413,0.309563 1.878013,0.309563 z"
         style="font-family:NanumSquare;-inkscape-font-specification:NanumSquare;baseline-shift:baseline"
         id="path1688" />
      <path
         d="M 101.65734,8.5858016 H 99.758689 V 7.3888265 h 1.898651 V 4.5202139 h 1.40335 v 2.8686126 h 3.07499 v 1.1969751 h -3.07499 v 6.7691004 q 0,1.135062 0.35084,1.589087 0.37147,0.454025 1.21761,0.454025 0.8255,0 1.56845,-0.206375 l 0.20637,1.1557 q -0.3302,0.123825 -0.88741,0.185738 -0.53657,0.08255 -0.9906,0.08255 -0.72231,0 -1.27952,-0.1651 -0.53658,-0.1651 -0.88742,-0.536575 -0.35083,-0.371475 -0.53657,-0.969963 -0.1651,-0.619125 -0.1651,-1.527175 z"
         style="font-family:NanumSquare;-inkscape-font-specification:NanumSquare;baseline-shift:baseline"
         id="path1690" />
      <path
         d="m 115.87654,12.218002 v -0.185738 q 0,-1.754187 -0.80486,-2.6828749 -0.80486,-0.9286875 -2.27012,-0.9286875 -1.4859,0 -2.3114,0.9906 -0.80487,0.9699624 -0.80487,2.6209624 v 0.185738 z m 1.1557,5.20065 q -0.6604,0.474662 -1.651,0.866775 -0.9906,0.392112 -2.39395,0.392112 -2.22885,0 -3.4671,-1.3208 -1.23825,-1.341437 -1.23825,-3.776662 v -1.382713 q 0,-2.3733124 1.19698,-3.6941124 1.21761,-1.3208001 3.32264,-1.3208001 2.18757,0 3.32263,1.3620751 1.1557,1.3414375 1.1557,3.6941124 v 1.1557 h -7.5946 v 0.185738 q 0,1.857375 0.88742,2.868612 0.88741,0.9906 2.43522,0.9906 1.11443,0 1.96056,-0.3302 0.84614,-0.3302 1.44463,-0.763587 z"
         style="font-family:NanumSquare;-inkscape-font-specification:NanumSquare;baseline-shift:baseline"
         id="path1692" />
      <path
         d="m 131.29272,7.1824515 q 1.89865,0 2.76543,1.031875 0.88741,1.0318751 0.88741,2.8067005 v 7.491412 h -1.40335 v -7.119937 q 0,-0.681038 -0.12382,-1.217613 -0.10319,-0.5365749 -0.39212,-0.9080499 -0.26828,-0.3921125 -0.76358,-0.5984875 -0.47467,-0.206375 -1.21762,-0.206375 -0.68103,0 -1.19697,0.24765 -0.51594,0.24765 -0.88741,0.6397625 -0.35084,0.3921125 -0.55722,0.8874129 -0.18573,0.4953 -0.20637,0.969962 v 7.305675 h -1.40335 v -7.119937 q 0,-0.681038 -0.12383,-1.217613 -0.10318,-0.5365749 -0.39211,-0.9080499 -0.26829,-0.3921125 -0.76359,-0.5984875 -0.47466,-0.206375 -1.21761,-0.206375 -0.68104,0 -1.21761,0.2682875 -0.53658,0.24765 -0.90805,0.6604 -0.35084,0.41275 -0.53658,0.9080499 -0.18573,0.4953 -0.18573,0.9906 v 7.223125 h -1.40335 V 7.3888265 h 1.38271 v 1.5478126 q 0.18574,-0.3302 0.45402,-0.6397625 0.28893,-0.3302001 0.68104,-0.5778501 0.39211,-0.24765 0.86678,-0.3921125 0.4953,-0.1444625 1.11442,-0.1444625 1.34144,0 2.16694,0.536575 0.8255,0.5159376 1.19697,1.4859001 0.18574,-0.3508375 0.47467,-0.701675 0.30956,-0.3714751 0.72231,-0.6604001 0.43339,-0.288925 0.96996,-0.4746625 0.55721,-0.1857375 1.21761,-0.1857375 z"
         style="font-family:NanumSquare;-inkscape-font-specification:NanumSquare;baseline-shift:baseline"
         id="path1694" />
    </g>
  </g>
  <metadata
     id="metadata1580">
    <rdf:RDF>
      <cc:Work
         rdf:about="">
        <dc:title>Pisces System Slogan</dc:title>
        <dc:date>2022/06/07</dc:date>
        <dc:creator>
          <cc:Agent>
            <dc:title>月読時</dc:title>
          </cc:Agent>
        </dc:creator>
        <dc:publisher>
          <cc:Agent>
            <dc:title>月読時</dc:title>
          </cc:Agent>
        </dc:publisher>
        <dc:subject>
          <rdf:Bag>
            <rdf:li>pisces system piscesys</rdf:li>
          </rdf:Bag>
        </dc:subject>
        <dc:contributor>
          <cc:Agent>
            <dc:title>月読時</dc:title>
          </cc:Agent>
        </dc:contributor>
        <dc:description>Pisces System's slogan using Nanum Square font.</dc:description>
      </cc:Work>
    </rdf:RDF>
  </metadata>
</svg>
